<mxfile host="app.diagrams.net" modified="2024-05-14T11:26:27.853Z" agent="Mozilla/5.0 (Windows NT 10.0; Win64; x64) AppleWebKit/537.36 (KHTML, like Gecko) Chrome/124.0.0.0 Safari/537.36 Edg/124.0.0.0" etag="sVOdrzcYM4ZhM2YnZKr7" version="24.4.0" type="device">
  <diagram name="Seite-1" id="w2n9hVFDd_Ky86ZuLnBp">
    <mxGraphModel dx="546" dy="506" grid="1" gridSize="10" guides="1" tooltips="1" connect="1" arrows="1" fold="1" page="1" pageScale="1" pageWidth="827" pageHeight="1169" math="0" shadow="0">
      <root>
        <mxCell id="0" />
        <mxCell id="1" parent="0" />
        <mxCell id="KFqctfKkBjUBF4naZkuh-1" value="USB C Port" style="rounded=1;whiteSpace=wrap;html=1;" vertex="1" parent="1">
          <mxGeometry x="40" y="90" width="100" height="430" as="geometry" />
        </mxCell>
        <mxCell id="KFqctfKkBjUBF4naZkuh-10" value="D+/D-" style="edgeStyle=none;curved=0;rounded=0;orthogonalLoop=1;jettySize=auto;html=1;entryX=0.985;entryY=0.235;entryDx=0;entryDy=0;fontSize=12;startSize=8;endSize=8;exitX=0;exitY=0.5;exitDx=0;exitDy=0;entryPerimeter=0;" edge="1" parent="1" source="KFqctfKkBjUBF4naZkuh-2" target="KFqctfKkBjUBF4naZkuh-1">
          <mxGeometry x="0.0712" y="20" relative="1" as="geometry">
            <Array as="points">
              <mxPoint x="180" y="140" />
              <mxPoint x="180" y="190" />
            </Array>
            <mxPoint as="offset" />
          </mxGeometry>
        </mxCell>
        <mxCell id="KFqctfKkBjUBF4naZkuh-28" style="edgeStyle=none;curved=0;rounded=0;orthogonalLoop=1;jettySize=auto;html=1;fontSize=12;startSize=8;endSize=8;" edge="1" parent="1" source="KFqctfKkBjUBF4naZkuh-2">
          <mxGeometry relative="1" as="geometry">
            <mxPoint x="489.9999999999999" y="210" as="targetPoint" />
            <Array as="points">
              <mxPoint x="440" y="140" />
              <mxPoint x="440" y="210" />
            </Array>
          </mxGeometry>
        </mxCell>
        <mxCell id="KFqctfKkBjUBF4naZkuh-2" value="USB 2.0 MUX/Redriver" style="rounded=1;whiteSpace=wrap;html=1;" vertex="1" parent="1">
          <mxGeometry x="220" y="110" width="120" height="60" as="geometry" />
        </mxCell>
        <mxCell id="KFqctfKkBjUBF4naZkuh-13" style="edgeStyle=none;curved=1;rounded=0;orthogonalLoop=1;jettySize=auto;html=1;fontSize=12;startSize=8;endSize=8;" edge="1" parent="1" source="KFqctfKkBjUBF4naZkuh-4" target="KFqctfKkBjUBF4naZkuh-1">
          <mxGeometry relative="1" as="geometry" />
        </mxCell>
        <mxCell id="KFqctfKkBjUBF4naZkuh-15" value="V_Bus" style="edgeLabel;html=1;align=center;verticalAlign=middle;resizable=0;points=[];fontSize=12;" vertex="1" connectable="0" parent="KFqctfKkBjUBF4naZkuh-13">
          <mxGeometry x="-0.15" y="3" relative="1" as="geometry">
            <mxPoint y="-18" as="offset" />
          </mxGeometry>
        </mxCell>
        <mxCell id="KFqctfKkBjUBF4naZkuh-24" style="edgeStyle=none;curved=0;rounded=0;orthogonalLoop=1;jettySize=auto;html=1;fontSize=12;startSize=8;endSize=8;" edge="1" parent="1" source="KFqctfKkBjUBF4naZkuh-4" target="KFqctfKkBjUBF4naZkuh-6">
          <mxGeometry relative="1" as="geometry">
            <Array as="points">
              <mxPoint x="270" y="250" />
            </Array>
          </mxGeometry>
        </mxCell>
        <mxCell id="KFqctfKkBjUBF4naZkuh-29" style="edgeStyle=none;curved=1;rounded=0;orthogonalLoop=1;jettySize=auto;html=1;fontSize=12;startSize=8;endSize=8;" edge="1" parent="1" source="KFqctfKkBjUBF4naZkuh-4">
          <mxGeometry relative="1" as="geometry">
            <mxPoint x="489.9999999999999" y="305" as="targetPoint" />
          </mxGeometry>
        </mxCell>
        <mxCell id="KFqctfKkBjUBF4naZkuh-4" value="Protection" style="rounded=1;whiteSpace=wrap;html=1;fillColor=#fad7ac;strokeColor=#b46504;" vertex="1" parent="1">
          <mxGeometry x="210" y="275" width="120" height="60" as="geometry" />
        </mxCell>
        <mxCell id="KFqctfKkBjUBF4naZkuh-19" style="edgeStyle=none;curved=0;rounded=0;orthogonalLoop=1;jettySize=auto;html=1;fontSize=12;startSize=8;endSize=8;entryX=1;entryY=0.75;entryDx=0;entryDy=0;" edge="1" parent="1" source="KFqctfKkBjUBF4naZkuh-5" target="KFqctfKkBjUBF4naZkuh-1">
          <mxGeometry relative="1" as="geometry">
            <mxPoint x="170" y="400" as="targetPoint" />
            <Array as="points">
              <mxPoint x="160" y="400" />
            </Array>
          </mxGeometry>
        </mxCell>
        <mxCell id="KFqctfKkBjUBF4naZkuh-27" style="edgeStyle=none;curved=1;rounded=0;orthogonalLoop=1;jettySize=auto;html=1;fontSize=12;startSize=8;endSize=8;" edge="1" parent="1" source="KFqctfKkBjUBF4naZkuh-5" target="KFqctfKkBjUBF4naZkuh-4">
          <mxGeometry relative="1" as="geometry" />
        </mxCell>
        <mxCell id="KFqctfKkBjUBF4naZkuh-5" value="CC Controller" style="rounded=1;whiteSpace=wrap;html=1;fillColor=#fad7ac;strokeColor=#b46504;" vertex="1" parent="1">
          <mxGeometry x="210" y="370" width="120" height="60" as="geometry" />
        </mxCell>
        <mxCell id="KFqctfKkBjUBF4naZkuh-25" style="edgeStyle=none;curved=0;rounded=0;orthogonalLoop=1;jettySize=auto;html=1;fontSize=12;startSize=8;endSize=8;exitX=0.5;exitY=0;exitDx=0;exitDy=0;entryX=0.5;entryY=1;entryDx=0;entryDy=0;" edge="1" parent="1" target="KFqctfKkBjUBF4naZkuh-2">
          <mxGeometry relative="1" as="geometry">
            <mxPoint x="350" y="245" as="sourcePoint" />
            <mxPoint x="280" y="185" as="targetPoint" />
            <Array as="points">
              <mxPoint x="350" y="195" />
              <mxPoint x="280" y="195" />
            </Array>
          </mxGeometry>
        </mxCell>
        <mxCell id="KFqctfKkBjUBF4naZkuh-6" value="DAC" style="rounded=1;whiteSpace=wrap;html=1;fillColor=#fad7ac;strokeColor=#b46504;" vertex="1" parent="1">
          <mxGeometry x="330" y="230" width="40" height="40" as="geometry" />
        </mxCell>
        <mxCell id="KFqctfKkBjUBF4naZkuh-16" value="" style="endArrow=cross;html=1;rounded=0;fontSize=12;startSize=8;endSize=8;curved=1;exitX=1.02;exitY=0.937;exitDx=0;exitDy=0;exitPerimeter=0;endFill=0;" edge="1" parent="1" source="KFqctfKkBjUBF4naZkuh-1">
          <mxGeometry width="50" height="50" relative="1" as="geometry">
            <mxPoint x="340" y="330" as="sourcePoint" />
            <mxPoint x="210" y="493" as="targetPoint" />
          </mxGeometry>
        </mxCell>
        <mxCell id="KFqctfKkBjUBF4naZkuh-17" value="USB 3.X" style="edgeLabel;html=1;align=center;verticalAlign=middle;resizable=0;points=[];fontSize=12;" vertex="1" connectable="0" parent="KFqctfKkBjUBF4naZkuh-16">
          <mxGeometry x="-0.4412" relative="1" as="geometry">
            <mxPoint x="69" as="offset" />
          </mxGeometry>
        </mxCell>
        <mxCell id="KFqctfKkBjUBF4naZkuh-20" value="" style="endArrow=block;html=1;rounded=0;fontSize=12;startSize=8;endSize=8;curved=1;endFill=0;" edge="1" parent="1">
          <mxGeometry width="50" height="50" relative="1" as="geometry">
            <mxPoint x="180" y="400" as="sourcePoint" />
            <mxPoint x="180" y="430" as="targetPoint" />
          </mxGeometry>
        </mxCell>
        <mxCell id="KFqctfKkBjUBF4naZkuh-21" value="&lt;font style=&quot;font-size: 10px;&quot;&gt;ESD&lt;/font&gt;" style="text;html=1;align=center;verticalAlign=middle;whiteSpace=wrap;rounded=0;fontSize=16;" vertex="1" parent="1">
          <mxGeometry x="160" y="430" width="40" height="20" as="geometry" />
        </mxCell>
        <mxCell id="KFqctfKkBjUBF4naZkuh-22" value="" style="endArrow=block;html=1;rounded=0;fontSize=12;startSize=8;endSize=8;curved=1;endFill=0;entryX=0.5;entryY=0;entryDx=0;entryDy=0;" edge="1" parent="1" target="KFqctfKkBjUBF4naZkuh-23">
          <mxGeometry width="50" height="50" relative="1" as="geometry">
            <mxPoint x="180" y="190" as="sourcePoint" />
            <mxPoint x="170" y="220" as="targetPoint" />
          </mxGeometry>
        </mxCell>
        <mxCell id="KFqctfKkBjUBF4naZkuh-23" value="&lt;font style=&quot;font-size: 10px;&quot;&gt;ESD&lt;/font&gt;" style="text;html=1;align=center;verticalAlign=middle;whiteSpace=wrap;rounded=0;fontSize=16;" vertex="1" parent="1">
          <mxGeometry x="160" y="220" width="40" height="20" as="geometry" />
        </mxCell>
        <mxCell id="KFqctfKkBjUBF4naZkuh-30" value="" style="endArrow=diamond;html=1;rounded=0;fontSize=12;startSize=8;endSize=8;curved=1;endFill=1;" edge="1" parent="1">
          <mxGeometry width="50" height="50" relative="1" as="geometry">
            <mxPoint x="460" y="400" as="sourcePoint" />
            <mxPoint x="490" y="400" as="targetPoint" />
          </mxGeometry>
        </mxCell>
        <mxCell id="KFqctfKkBjUBF4naZkuh-31" value="" style="endArrow=block;html=1;rounded=0;fontSize=12;startSize=8;endSize=8;curved=1;endFill=0;entryX=0.5;entryY=0;entryDx=0;entryDy=0;" edge="1" parent="1" target="KFqctfKkBjUBF4naZkuh-32">
          <mxGeometry width="50" height="50" relative="1" as="geometry">
            <mxPoint x="450" y="210" as="sourcePoint" />
            <mxPoint x="440" y="240" as="targetPoint" />
          </mxGeometry>
        </mxCell>
        <mxCell id="KFqctfKkBjUBF4naZkuh-32" value="&lt;font style=&quot;font-size: 10px;&quot;&gt;ESD&lt;/font&gt;" style="text;html=1;align=center;verticalAlign=middle;whiteSpace=wrap;rounded=0;fontSize=16;" vertex="1" parent="1">
          <mxGeometry x="430" y="240" width="40" height="20" as="geometry" />
        </mxCell>
        <mxCell id="KFqctfKkBjUBF4naZkuh-33" value="&lt;font style=&quot;font-size: 10px;&quot;&gt;I2C&lt;/font&gt;" style="text;html=1;align=center;verticalAlign=middle;whiteSpace=wrap;rounded=0;fontSize=16;" vertex="1" parent="1">
          <mxGeometry x="440" y="370" width="30" height="30" as="geometry" />
        </mxCell>
        <mxCell id="KFqctfKkBjUBF4naZkuh-34" value="" style="rounded=0;whiteSpace=wrap;html=1;fillColor=none;dashed=1;" vertex="1" parent="1">
          <mxGeometry x="200" y="210" width="190" height="240" as="geometry" />
        </mxCell>
        <mxCell id="KFqctfKkBjUBF4naZkuh-35" value="&lt;font style=&quot;font-size: 10px;&quot;&gt;Integrated PD Controller&lt;/font&gt;" style="text;html=1;align=center;verticalAlign=middle;whiteSpace=wrap;rounded=0;fontSize=16;" vertex="1" parent="1">
          <mxGeometry x="210" y="210" width="110" height="30" as="geometry" />
        </mxCell>
      </root>
    </mxGraphModel>
  </diagram>
</mxfile>
